<?xml version="1.0" encoding="UTF-8"?>
<svg id="Layer_2" data-name="Layer 2" xmlns="http://www.w3.org/2000/svg" viewBox="0 0 288.87 337.19">
  <g id="Layer_1-2" data-name="Layer 1">
    <g>
      <path d="M206.07,183.35c3.29-1.06,5.03-4.03,4.44-7.28-.46-2.55-1.23-4.99-2.18-7.39-4.43-11.15,10.12-15.49,9.89-19.6-.14-2.41-4.46-2.47-4.47-5.85,0-1.43.96-2.69,2.33-3.27l3.12-1.32c2.91-1.23.49-5.78-.54-7.67-.76-1.4-1.5-2.89-1.8-4.41-.54-2.71.77-5.12,3.21-6.22,3.7-1.66,6.16-.44,7.44-1.78,1.36-1.42-2.28-8.55-3.44-10.36l-9.21-14.45c-2.37-3.72-4.5-7.38-6.54-11.27-1.13-2.16-1.51-4.49-1.23-6.9.62-5.27.66-10.28.06-15.58-2.55-22.36-18.95-37.54-39.5-44.46-22.12-7.45-44.96-5.79-66.11,3.82-17.44,7.92-30.65,21.63-35.74,40.27-1.19,4.42-1.86,8.62-2.31,13.17l-10.96,11.09c-1-23.95,7.14-47.77,25.66-63.42,31.44-26.56,87.2-27.83,118.68-.54,8.76,7.59,15.31,17.19,18.78,28.28,2.55,8.15,3.16,16.49,2.57,24.97-.27,3.84.44,7.24,2.46,10.45l7.63,12.16c3.71,5.91,10.06,15.6,10.32,22.34.14,3.63-2.09,6.46-5.54,7.06l-5.1.88c1.61,4.36,5.59,10.3,1.95,13.72-1.9,1.79-4.28,2.81-6.97,3.66,1.64.95,3.24,1.92,4.45,3.31,3.53,4.05-.49,8.48-3.57,11.21-3.38,3-6.46,4.86-5.05,8.56,1.55,4.06,2.6,8.17,2.65,12.5.06,6.4-3.88,11.5-10.12,12.93-3.18.73-6.51.89-9.88.55l-11.99-1.22c-3.47-.35-6.87-.12-10.22.6-5.58,1.19-9.48,5.18-10.87,10.83l-9.78.02c1.37-8.74,3.85-16.53,13.25-19.09,13.71-3.73,24.14,2.95,34.24-.3Z"/>
      <path d="M168.12,219.02h-76.96c-1.89,0-3.33-1.16-3.32-3.08v-6.31c.01-1.57,1.38-2.88,3.04-2.88h77.54c1.86,0,3.06,1.48,3.06,3.18l-.02,6.01c0,1.93-1.42,3.08-3.32,3.08Z"/>
      <path d="M169.81,232.27c0,1.89-1.42,3.05-3.2,3.05h-74.21c-1.65,0-2.92-1.39-2.92-2.91v-6.44c0-1.7,1.41-2.92,3.17-2.92h73.99c1.77,0,3.16,1.22,3.16,2.92v6.3Z"/>
      <path d="M146.61,250.69c-9.87,7.23-23.62,7.25-33.53.31-3.34-2.34-5.51-5.59-6.1-9.52-.06-.43.15-1.32.37-1.61s.92-.54,1.46-.54h41.66c.53,0,1.23.25,1.46.53s.45,1.14.38,1.57c-.57,3.71-2.45,6.87-5.7,9.25Z"/>
      <path d="M233.99,296.45l-.03-17.05,15.12.02c1.32-.4,2.28-1.23,2.34-2.48.05-1.02-.62-2.67-1.96-2.68l-15.46-.04v-5.92s14.56-.07,14.56-.07c3.2-.02,6.03,1.43,7.58,4.01,1.66,2.75,1.72,6.02.02,8.93,2.83,2.4,3.94,6.15,2.68,9.61s-4.62,5.81-8.48,5.66h-16.37ZM251.33,290.37c1.35,0,2.07-1.67,2.02-2.58-.05-1.03-.82-2.41-2.11-2.41h-11.28s.02,5.03.02,5.03l11.34-.04Z" style="fill: #2253a0;"/>
      <path d="M.04,296.45l-.03-17.05h14.63c1.34,0,2.4-.9,2.74-1.98.28-.92-.24-3.08-1.64-3.09l-15.73-.14.05-5.89,14.59-.07c3.17-.02,5.95,1.49,7.54,4.05,1.68,2.7,1.69,5.99.04,8.88,2.89,2.51,3.98,6.39,2.5,9.97-1.37,3.31-4.76,5.57-8.6,5.3l-16.1.02ZM17.4,290.36c1.34,0,2.02-1.67,2-2.58-.02-.83-.71-2.36-1.84-2.36l-11.55-.04.02,5.03,11.36-.04Z" style="fill: #2253a0;"/>
      <path d="M149.48,296.38l-8.3.1c-4.74.06-8.86-3.36-8.68-8.19l5.63.08c.33.78.96,2.06,1.59,2.07l9.29.03c1.48,0,2.52-1.15,2.59-2.42.09-1.45-1.01-2.71-2.6-2.72l-8.13-.03c-4.73-.02-8.37-3.86-8.46-8.34s3.62-8.72,8.46-8.7l9.03.03c4.35.01,7.74,3.57,7.83,8.05h-5.69c-.37-.92-.95-2.11-1.83-2.11h-9.34c-1.44,0-2.43,1.23-2.48,2.49-.04,1.09.86,2.61,2.27,2.63l9.23.11c4.51.05,7.78,4.35,7.7,8.61s-3.45,8.26-8.12,8.31Z" style="fill: #2253a0;"/>
      <path d="M198.13,284.36l-.02,11.96c-1.97.14-3.88.14-5.95.07v-18.05s9.62-.01,9.62-.01c3,0,5.81-1.45,7.09-4.18l-16.68-.02-.04-5.91,23.64-.02c.78,5.15-1.36,10.11-5.47,13.31l9.01,14.84-6.9.1-7.52-12.31-6.79.23Z" style="fill: #2253a0;"/>
      <path d="M35.75,284.33l-.06,12.1h-5.96s0-18.06,0-18.06l10.71-.13c2.58-.03,4.8-1.86,6.04-4.08l-16.66-.03-.02-5.91h23.51c.9,4.99-1.22,10-5.4,13.29l9.01,14.86-6.93.04-7.5-12.3-6.72.23Z" style="fill: #2253a0;"/>
      <path d="M90.79,202.75c.04-9.92-1.23-19.35-4.17-28.93l8.89-9.03c3.96,11.78,6.3,25.52,6.09,37.94l-10.8.03Z"/>
      <path d="M181.65,279.76c-1.55-4.09-5.26-6.19-9.32-5.48-3.66.65-6.57,3.9-6.67,7.78s2.54,7.31,6.28,8.18c3.95.92,7.92-1.04,9.55-5.01l6.16.07c-1.69,7.47-8.49,11.9-15.58,11.03-7.13-.88-12.47-7.03-12.37-14.26.1-7.05,5.6-13.05,12.55-13.81s13.95,3.93,15.5,11.38l-6.1.12Z" style="fill: #2253a0;"/>
      <polygon points="269.67 290.44 288.86 290.48 288.84 296.44 263.68 296.44 263.68 278.43 286.31 278.43 286.36 284.39 269.69 284.41 269.67 290.44" style="fill: #2253a0;"/>
      <path d="M128.15,268.24l-.02,27.88c0,.57-1.57.19-1.91-.16l-20.88-20.89c.27-1.75-1.22-9.62,2.01-6.4l14.73,14.71.1-15.14h5.97Z" style="fill: #2253a0;"/>
      <path d="M90.5,296.24c-2.68.27-4.79.21-7.36.19l-12.56-22.63,2.63-4.95c.14-.27.66-.73.96-.79.36-.08,1.01.42,1.22.86l15.1,27.32Z" style="fill: #2253a0;"/>
      <polygon points="101.01 296.41 95.06 296.41 95.06 268.28 101 268.23 101.01 296.41" style="fill: #2253a0;"/>
      <polygon points="229.73 296.42 223.74 296.4 223.74 268.33 229.72 268.27 229.73 296.42" style="fill: #2253a0;"/>
      <polygon points="288.87 274.22 263.72 274.22 263.72 268.25 288.85 268.25 288.87 274.22" style="fill: #2253a0;"/>
      <path d="M65.58,296.33c-2.41.15-4.65.14-7.51.02l10.06-18.19,3.77,6.69-6.32,11.48Z" style="fill: #2253a0;"/>
      <polygon points="111.31 296.37 105.31 296.41 105.47 281.38 111.27 287.03 111.31 296.37" style="fill: #2253a0;"/>
      <g>
        <path d="M57.77,109.12c.77.32,60.35-58.35,60.35-58.35l3.86,4.37,4.13-24.01-22.52,4.78,3.57,4.51-52.98,51.28s2.81,17.11,3.57,17.43Z" style="fill: #0576bc;"/>
        <path d="M71.55,137.27c.49.67,91.92-89.65,91.92-89.65l3.86,4.37,4.13-24.01-22.52,4.78,3.57,4.51L63.82,123.91s5.57,10.42,7.74,13.36Z" style="fill: #1b96d3;"/>
        <path d="M85.41,164.78c.49.67,64.2-61.67,64.2-61.67l3.86,4.37,4.13-24.01-22.52,4.78,3.57,4.51-59.78,57.9s4.37,11.18,6.53,14.12Z" style="fill: #4abceb;"/>
      </g>
      <text transform="translate(6.01 330.64)" style="fill: #231f20; font-family: DMSans-Medium, &apos;DM Sans&apos;; font-size: 25px; font-weight: 500; letter-spacing: .41em;"><tspan x="0" y="0">Solutions,LLP</tspan></text>
    </g>
  </g>
</svg>