<?xml version="1.0" encoding="UTF-8"?>
<svg id="Layer_2" data-name="Layer 2" xmlns="http://www.w3.org/2000/svg" viewBox="0 0 56.4 77.6">
  <g id="Layer_1-2" data-name="Layer 1">
    <g>
      <path d="M46.54,55.54c1-.32,1.52-1.22,1.34-2.21-.14-.77-.37-1.51-.66-2.24-1.34-3.38,3.07-4.69,2.99-5.94-.04-.73-1.35-.75-1.35-1.77,0-.43.29-.81.71-.99l.94-.4c.88-.37.15-1.75-.16-2.32-.23-.42-.45-.87-.55-1.33-.16-.82.23-1.55.97-1.88,1.12-.5,1.87-.13,2.25-.54.41-.43-.69-2.59-1.04-3.14l-2.79-4.38c-.72-1.13-1.36-2.24-1.98-3.41-.34-.65-.46-1.36-.37-2.09.19-1.6.2-3.11.02-4.72-.77-6.77-5.74-11.37-11.96-13.47-6.7-2.26-13.62-1.75-20.03,1.16-5.28,2.4-9.28,6.55-10.83,12.2-.36,1.34-.56,2.61-.7,3.99L.02,25.41c-.3-7.25,2.16-14.47,7.77-19.21,9.52-8.05,26.41-8.43,35.95-.16,2.65,2.3,4.64,5.21,5.69,8.57.77,2.47.96,4.99.78,7.56-.08,1.16.13,2.19.74,3.17l2.31,3.68c1.12,1.79,3.05,4.73,3.13,6.77.04,1.1-.63,1.96-1.68,2.14l-1.54.27c.49,1.32,1.69,3.12.59,4.16-.58.54-1.3.85-2.11,1.11.5.29.98.58,1.35,1,1.07,1.23-.15,2.57-1.08,3.39-1.02.91-1.96,1.47-1.53,2.59.47,1.23.79,2.48.8,3.79.02,1.94-1.18,3.48-3.06,3.92-.96.22-1.97.27-2.99.17l-3.63-.37c-1.05-.11-2.08-.04-3.1.18-1.69.36-2.87,1.57-3.29,3.28h-2.96c.42-2.64,1.17-5,4.01-5.78,4.15-1.13,7.31.89,10.37-.09Z"/>
      <path d="M35.04,66.35H11.73c-.57,0-1.01-.35-1.01-.93v-1.91c0-.48.42-.87.92-.87h23.49c.56,0,.93.45.93.96v1.82c0,.58-.44.93-1.01.93Z"/>
      <path d="M35.55,70.36c0,.57-.43.92-.97.92H12.1c-.5,0-.88-.42-.88-.88v-1.95c0-.52.43-.88.96-.88h22.41c.54,0,.96.37.96.88v1.91Z"/>
      <path d="M28.53,75.94c-2.99,2.19-7.16,2.19-10.16.09-1.01-.71-1.67-1.69-1.85-2.88-.02-.13.04-.4.11-.49s.28-.16.44-.16h12.62c.16,0,.37.08.44.16s.14.34.11.48c-.17,1.13-.74,2.08-1.73,2.8Z"/>
      <path d="M11.62,61.42c.01-3-.37-5.86-1.26-8.76l2.69-2.74c1.2,3.57,1.91,7.73,1.84,11.49h-3.27Z"/>
      <g>
        <path d="M1.61,33.06c.23.1,18.28-17.68,18.28-17.68l1.17,1.32,1.25-7.27-6.82,1.45,1.08,1.37L.53,27.78s.85,5.18,1.08,5.28Z" style="fill: #0576bc;"/>
        <path d="M5.79,41.58c.15.2,27.84-27.16,27.84-27.16l1.17,1.32,1.25-7.27-6.82,1.45,1.08,1.37L3.44,37.54s1.69,3.16,2.34,4.05Z" style="fill: #1b96d3;"/>
        <path d="M9.98,49.92c.15.2,19.45-18.68,19.45-18.68l1.17,1.32,1.25-7.27-6.82,1.45,1.08,1.37-18.11,17.54s1.32,3.39,1.98,4.28Z" style="fill: #4abceb;"/>
      </g>
    </g>
  </g>
</svg>