<?xml version="1.0" encoding="UTF-8"?>
<svg id="Layer_2" data-name="Layer 2" xmlns="http://www.w3.org/2000/svg" viewBox="0 0 267.74 137.41">
  <g id="Layer_1-2" data-name="Layer 1">
    <g>
      <g>
        <path d="M231.23,132.42l-.02-11.34h10.05c.88-.26,1.52-.81,1.56-1.64.03-.68-.41-1.78-1.3-1.78l-10.29-.02v-3.94s9.69-.05,9.69-.05c2.13-.01,4.01.95,5.05,2.66,1.1,1.83,1.14,4,.01,5.94,1.88,1.6,2.62,4.09,1.78,6.39s-3.07,3.86-5.64,3.76h-10.89ZM242.76,128.37c.9,0,1.38-1.11,1.35-1.71-.03-.69-.55-1.6-1.4-1.6h-7.5s.02,3.34.02,3.34l7.54-.02Z" style="fill: #2253a0;"/>
        <path d="M75.61,132.42l-.02-11.34h9.73c.89,0,1.6-.6,1.82-1.32.19-.61-.16-2.05-1.09-2.05l-10.46-.1.03-3.92,9.7-.05c2.11-.01,3.96.99,5.02,2.7,1.12,1.79,1.12,3.99.03,5.91,1.92,1.67,2.65,4.25,1.66,6.63-.91,2.2-3.17,3.71-5.72,3.53h-10.71ZM87.15,128.37c.89,0,1.34-1.11,1.33-1.72-.01-.55-.47-1.57-1.22-1.57l-7.68-.03.02,3.35,7.56-.03Z" style="fill: #2253a0;"/>
        <path d="M175.01,132.37l-5.52.07c-3.15.04-5.9-2.23-5.78-5.45l3.74.05c.22.52.64,1.37,1.06,1.37l6.18.02c.99,0,1.67-.77,1.72-1.61.06-.97-.67-1.8-1.73-1.81l-5.4-.02c-3.14-.01-5.57-2.57-5.63-5.55-.06-3.12,2.41-5.8,5.63-5.79l6.01.02c2.89,0,5.15,2.38,5.21,5.35h-3.79c-.25-.61-.63-1.4-1.21-1.4h-6.22c-.96,0-1.62.82-1.65,1.66-.03.73.57,1.74,1.51,1.75l6.14.07c3,.04,5.18,2.89,5.12,5.73s-2.3,5.49-5.4,5.53Z" style="fill: #2253a0;"/>
        <path d="M207.37,124.38v7.96c-1.33.09-2.59.09-3.97.04v-12s6.4,0,6.4,0c2,0,3.87-.97,4.72-2.78h-11.09s-.02-3.95-.02-3.95h15.73c.52,3.42-.9,6.72-3.64,8.84l5.99,9.87-4.59.07-5-8.19-4.52.15Z" style="fill: #2253a0;"/>
        <path d="M99.36,124.36l-.04,8.05h-3.97s0-12.01,0-12.01l7.12-.09c1.72-.02,3.19-1.24,4.02-2.71l-11.08-.02-.02-3.93h15.64c.6,3.32-.81,6.65-3.59,8.84l5.99,9.89-4.61.03-4.99-8.18-4.47.15Z" style="fill: #2253a0;"/>
        <path d="M196.41,121.32c-1.03-2.72-3.5-4.12-6.2-3.64-2.43.43-4.37,2.6-4.44,5.18s1.69,4.86,4.18,5.44c2.63.61,5.27-.69,6.35-3.33l4.1.04c-1.13,4.97-5.65,7.92-10.37,7.33-4.74-.59-8.3-4.68-8.23-9.49s3.72-8.68,8.35-9.18,9.28,2.61,10.31,7.57l-4.05.08Z" style="fill: #2253a0;"/>
        <polygon points="254.97 128.42 267.73 128.45 267.72 132.41 250.98 132.41 250.98 120.43 266.03 120.43 266.06 124.39 254.98 124.41 254.97 128.42" style="fill: #2253a0;"/>
        <path d="M160.83,113.66v18.54c-.01.38-1.06.13-1.29-.1l-13.89-13.89c.18-1.16-.81-6.4,1.34-4.26l9.8,9.79.06-10.07h3.97Z" style="fill: #2253a0;"/>
        <path d="M135.78,132.28c-1.79.18-3.18.14-4.89.13l-8.35-15.05,1.75-3.29c.1-.18.44-.48.64-.53.24-.05.67.28.81.57l10.04,18.17Z" style="fill: #2253a0;"/>
        <polygon points="142.77 132.39 138.81 132.39 138.81 113.68 142.77 113.65 142.77 132.39" style="fill: #2253a0;"/>
        <polygon points="228.4 132.4 224.41 132.39 224.41 113.71 228.39 113.67 228.4 132.4" style="fill: #2253a0;"/>
        <polygon points="267.74 117.63 251.01 117.63 251.01 113.66 267.72 113.66 267.74 117.63" style="fill: #2253a0;"/>
        <path d="M119.2,132.34c-1.6.1-3.09.09-4.99.01l6.69-12.1,2.51,4.45-4.21,7.63Z" style="fill: #2253a0;"/>
        <polygon points="149.62 132.37 145.63 132.39 145.74 122.4 149.6 126.15 149.62 132.37" style="fill: #2253a0;"/>
        <path d="M242.76,128.37l-7.54.02-.02-3.35h7.5c.85,0,1.37.92,1.4,1.61.03.6-.45,1.71-1.35,1.71Z" style="fill: #fff;"/>
        <path d="M87.15,128.37l-7.56.03-.02-3.35,7.68.03c.75,0,1.21,1.02,1.22,1.57.01.6-.44,1.71-1.33,1.72Z" style="fill: #fff;"/>
      </g>
      <g>
        <path d="M82.41,98.35c1.76-.57,2.7-2.16,2.38-3.91-.25-1.37-.66-2.68-1.17-3.96-2.38-5.98,5.43-8.31,5.3-10.52-.07-1.29-2.39-1.32-2.4-3.14,0-.77.52-1.44,1.25-1.75l1.67-.71c1.56-.66.26-3.1-.29-4.11-.41-.75-.8-1.55-.97-2.36-.29-1.45.42-2.75,1.72-3.33,1.98-.89,3.3-.24,3.99-.95.73-.76-1.22-4.58-1.84-5.56l-4.94-7.75c-1.27-2-2.41-3.96-3.51-6.05-.61-1.16-.81-2.41-.66-3.7.33-2.82.36-5.51.03-8.36-1.37-12-10.17-20.14-21.19-23.85-11.87-4-24.12-3.11-35.46,2.05-9.35,4.25-16.44,11.6-19.17,21.6-.64,2.37-1,4.62-1.24,7.07L.04,45C-.49,32.16,3.87,19.38,13.81,10.98c16.86-14.25,46.77-14.93,63.66-.29,4.7,4.07,8.21,9.22,10.07,15.17,1.37,4.37,1.69,8.84,1.38,13.4-.14,2.06.24,3.88,1.32,5.6l4.09,6.52c1.99,3.17,5.4,8.37,5.54,11.98.08,1.95-1.12,3.46-2.97,3.78l-2.73.47c.87,2.34,3,5.52,1.04,7.36-1.02.96-2.3,1.51-3.74,1.96.88.51,1.74,1.03,2.39,1.78,1.89,2.17-.26,4.55-1.91,6.01-1.82,1.61-3.47,2.61-2.71,4.59.83,2.18,1.4,4.38,1.42,6.71.03,3.43-2.08,6.17-5.43,6.94-1.71.39-3.49.48-5.3.29l-6.43-.65c-1.86-.19-3.69-.06-5.48.32-2.99.64-5.08,2.78-5.83,5.81h-5.25c.74-4.68,2.06-8.85,7.11-10.23,7.35-2,12.95,1.58,18.37-.16Z"/>
        <path d="M62.05,117.49H20.77c-1.01,0-1.78-.62-1.78-1.65v-3.39c0-.84.74-1.55,1.63-1.55h41.59c1,0,1.64.8,1.64,1.71v3.22c-.01,1.03-.77,1.65-1.79,1.65Z"/>
        <path d="M62.96,124.59c0,1.01-.76,1.64-1.71,1.64H21.43c-.88,0-1.57-.75-1.57-1.56v-3.46c0-.91.75-1.56,1.7-1.56h39.69c.95,0,1.7.65,1.7,1.57v3.38Z"/>
        <path d="M50.51,134.48c-5.29,3.88-12.67,3.89-17.98.17-1.79-1.26-2.96-3-3.27-5.11-.03-.23.08-.71.2-.86s.49-.29.78-.29h22.35c.29,0,.66.14.78.28s.24.61.2.84c-.31,1.99-1.31,3.68-3.06,4.96Z"/>
        <path d="M20.57,108.76c.02-5.32-.66-10.38-2.24-15.52l4.77-4.84c2.13,6.32,3.38,13.69,3.26,20.35h-5.8Z"/>
        <g>
          <path d="M2.85,58.53c.41.17,32.37-31.3,32.37-31.3l2.07,2.35,2.22-12.88-12.08,2.56,1.92,2.42L.94,49.19s1.51,9.18,1.92,9.35Z" style="fill: #0576bc;"/>
          <path d="M10.25,73.63c.26.36,49.3-48.09,49.3-48.09l2.07,2.35,2.22-12.88-12.08,2.56,1.92,2.42L6.1,66.47s2.99,5.59,4.15,7.17Z" style="fill: #1b96d3;"/>
          <path d="M17.68,88.39c.26.36,34.44-33.08,34.44-33.08l2.07,2.35,2.22-12.88-12.08,2.56,1.92,2.42-32.07,31.06s2.34,6,3.5,7.58Z" style="fill: #4abceb;"/>
        </g>
      </g>
    </g>
  </g>
</svg>