<?xml version="1.0" encoding="UTF-8"?>
<svg id="Layer_2" data-name="Layer 2" xmlns="http://www.w3.org/2000/svg" xmlns:xlink="http://www.w3.org/1999/xlink" viewBox="0 0 96.47 90.08">
  <defs>
    <linearGradient id="linear-gradient" x1="48.23" y1="102" x2="48.23" y2="-39.59" gradientUnits="userSpaceOnUse">
      <stop offset="0" stop-color="#2377ed"/>
      <stop offset="1" stop-color="#08d442"/>
    </linearGradient>
    <linearGradient id="linear-gradient-2" x1="48.23" y1="102" x2="48.23" y2="-39.59" gradientUnits="userSpaceOnUse">
      <stop offset="0" stop-color="#2377ed"/>
      <stop offset=".26" stop-color="#1998af"/>
      <stop offset=".54" stop-color="#10b874"/>
      <stop offset=".74" stop-color="#0acc4f"/>
      <stop offset=".85" stop-color="#08d442"/>
    </linearGradient>
  </defs>
  <g id="Layer_1-2" data-name="Layer 1">
    <g>
      <path d="M20.01,31.58c2.18,0,3.95,1.77,3.95,3.95s-1.77,3.95-3.95,3.95-3.95-1.77-3.95-3.95,1.77-3.95,3.95-3.95M26.2,1.39c2.18,0,3.95,1.77,3.95,3.95s-1.77,3.95-3.95,3.95-3.95-1.77-3.95-3.95,1.77-3.95,3.95-3.95ZM14.16,15.79c2.18,0,3.95,1.77,3.95,3.95s-1.77,3.95-3.95,3.95-3.95-1.77-3.95-3.95,1.77-3.95,3.95-3.95ZM7.89,52.89c2.18,0,3.95,1.77,3.95,3.95s-1.77,3.95-3.95,3.95-3.95-1.77-3.95-3.95,1.77-3.95,3.95-3.95ZM3.95,35.53c2.18,0,3.95,1.77,3.95,3.95s-1.77,3.95-3.95,3.95-3.95-1.77-3.95-3.95,1.77-3.95,3.95-3.95ZM22.05,66.3c2.18,0,3.95,1.77,3.95,3.95s-1.77,3.95-3.95,3.95-3.95-1.77-3.95-3.95,1.77-3.95,3.95-3.95ZM36.31,60.2c2.18,0,3.95,1.77,3.95,3.95s-1.77,3.95-3.95,3.95-3.95-1.77-3.95-3.95,1.77-3.95,3.95-3.95ZM48.32,2.58c13.24-.14,22.84,2.5,28.79,7.93,5.36,4.89,7.59,11.94,7.13,21.17-.25,5.02-.84,5.82,2.27,8.35,3.52,2.87,9.17,7.55,9.85,10.48.65,2.8-1.39,4.7-6.9,6.29.52.63.89,1.33,1.09,2.03.2.7.23,1.41.09,2.07-.15.71-.51,1.35-1.08,1.85-.23.2-.49.37-.79.52.41.68.64,1.44.62,2.24-.02.93-.35,1.87-1.07,2.75l-.07.08c-.54.64-1.29,1.25-2.28,1.78,2.56,8.88.36,12.36-4.02,13.74-2.54.8-5.77.75-9.18.7-3.67-.06-7.58-.12-10.73.94.04.22.06.44.06.67,0,2.18-1.77,3.95-3.95,3.95s-3.95-1.77-3.95-3.95c0-2,1.49-3.66,3.43-3.91.37-3.04.19-6.09-.52-9.02l-.04-.18c-3.54,1.8-7.32,3.18-11.29,4.1-.26,1.93-1.91,3.41-3.91,3.41-2.18,0-3.95-1.77-3.95-3.95s1.77-3.95,3.95-3.95c1.47,0,2.75.8,3.43,2,3.88-.91,7.58-2.29,11.02-4.08-1.11-3.1-2.83-5.99-5.11-8.5-2.92-3.21-6.55-5.56-10.53-6.92-2.85-.98-5.87-1.45-8.93-1.37-.4,1.75-1.97,3.06-3.85,3.06-2.18,0-3.95-1.77-3.95-3.95s1.77-3.95,3.95-3.95c1.6,0,2.97.95,3.59,2.31,3.42-.11,6.81.41,10,1.5,4.37,1.5,8.37,4.09,11.57,7.62,2.41,2.65,4.25,5.7,5.48,8.96,1.33-.78,2.61-1.63,3.85-2.53h0c4.44-3.37,7.94-7.71,10.3-12.6-2.09-2.12-4.36-4.08-6.79-5.88-6.71-4.96-14.55-8.57-22.67-10.14-.66,1.26-1.98,2.13-3.5,2.13-2.18,0-3.95-1.77-3.95-3.95s1.77-3.95,3.95-3.95c1.95,0,3.57,1.41,3.89,3.27,8.53,1.64,16.76,5.42,23.78,10.61,2.26,1.67,4.39,3.49,6.37,5.42,2.04-5.23,2.82-10.98,2.11-16.77-4.79-3.6-9.12-6.5-13.79-8.8-6.02-2.97-12.64-4.97-21.62-6.23-.64,1.32-1.99,2.23-3.55,2.23-2.18,0-3.95-1.77-3.95-3.95s1.77-3.95,3.95-3.95c1.91,0,3.5,1.36,3.87,3.16,9.29,1.31,16.15,3.38,22.42,6.47,4.12,2.03,7.95,4.49,12.04,7.47-2.5-10.91-15.32-23.88-26.87-26.25-.49,1.62-2,2.79-3.78,2.79-2.18,0-3.95-1.77-3.95-3.95s1.77-3.95,3.95-3.95c1.7,0,3.14,1.07,3.7,2.58Z" style="fill: url(#linear-gradient);"/>
      <path d="M20.01,31.58c2.18,0,3.95,1.77,3.95,3.95s-1.77,3.95-3.95,3.95-3.95-1.77-3.95-3.95,1.77-3.95,3.95-3.95M26.2,1.39c2.18,0,3.95,1.77,3.95,3.95s-1.77,3.95-3.95,3.95-3.95-1.77-3.95-3.95,1.77-3.95,3.95-3.95ZM14.16,15.79c2.18,0,3.95,1.77,3.95,3.95s-1.77,3.95-3.95,3.95-3.95-1.77-3.95-3.95,1.77-3.95,3.95-3.95ZM7.89,52.89c2.18,0,3.95,1.77,3.95,3.95s-1.77,3.95-3.95,3.95-3.95-1.77-3.95-3.95,1.77-3.95,3.95-3.95ZM3.95,35.53c2.18,0,3.95,1.77,3.95,3.95s-1.77,3.95-3.95,3.95-3.95-1.77-3.95-3.95,1.77-3.95,3.95-3.95ZM22.05,66.3c2.18,0,3.95,1.77,3.95,3.95s-1.77,3.95-3.95,3.95-3.95-1.77-3.95-3.95,1.77-3.95,3.95-3.95ZM36.31,60.2c2.18,0,3.95,1.77,3.95,3.95s-1.77,3.95-3.95,3.95-3.95-1.77-3.95-3.95,1.77-3.95,3.95-3.95ZM48.32,2.58c13.24-.14,22.84,2.5,28.79,7.93,5.36,4.89,7.59,11.94,7.13,21.17-.25,5.02-.84,5.82,2.27,8.35,3.52,2.87,9.17,7.55,9.85,10.48.65,2.8-1.39,4.7-6.9,6.29.52.63.89,1.33,1.09,2.03.2.7.23,1.41.09,2.07-.15.71-.51,1.35-1.08,1.85-.23.2-.49.37-.79.52.41.68.64,1.44.62,2.24-.02.93-.35,1.87-1.07,2.75l-.07.08c-.54.64-1.29,1.25-2.28,1.78,2.56,8.88.36,12.36-4.02,13.74-2.54.8-5.77.75-9.18.7-3.67-.06-7.58-.12-10.73.94.04.22.06.44.06.67,0,2.18-1.77,3.95-3.95,3.95s-3.95-1.77-3.95-3.95c0-2,1.49-3.66,3.43-3.91.37-3.04.19-6.09-.52-9.02l-.04-.18c-3.54,1.8-7.32,3.18-11.29,4.1-.26,1.93-1.91,3.41-3.91,3.41-2.18,0-3.95-1.77-3.95-3.95s1.77-3.95,3.95-3.95c1.47,0,2.75.8,3.43,2,3.88-.91,7.58-2.29,11.02-4.08-1.11-3.1-2.83-5.99-5.11-8.5-2.92-3.21-6.55-5.56-10.53-6.92-2.85-.98-5.87-1.45-8.93-1.37-.4,1.75-1.97,3.06-3.85,3.06-2.18,0-3.95-1.77-3.95-3.95s1.77-3.95,3.95-3.95c1.6,0,2.97.95,3.59,2.31,3.42-.11,6.81.41,10,1.5,4.37,1.5,8.37,4.09,11.57,7.62,2.41,2.65,4.25,5.7,5.48,8.96,1.33-.78,2.61-1.63,3.85-2.53h0c4.44-3.37,7.94-7.71,10.3-12.6-2.09-2.12-4.36-4.08-6.79-5.88-6.71-4.96-14.55-8.57-22.67-10.14-.66,1.26-1.98,2.13-3.5,2.13-2.18,0-3.95-1.77-3.95-3.95s1.77-3.95,3.95-3.95c1.95,0,3.57,1.41,3.89,3.27,8.53,1.64,16.76,5.42,23.78,10.61,2.26,1.67,4.39,3.49,6.37,5.42,2.04-5.23,2.82-10.98,2.11-16.77-4.79-3.6-9.12-6.5-13.79-8.8-6.02-2.97-12.64-4.97-21.62-6.23-.64,1.32-1.99,2.23-3.55,2.23-2.18,0-3.95-1.77-3.95-3.95s1.77-3.95,3.95-3.95c1.91,0,3.5,1.36,3.87,3.16,9.29,1.31,16.15,3.38,22.42,6.47,4.12,2.03,7.95,4.49,12.04,7.47-2.5-10.91-15.32-23.88-26.87-26.25-.49,1.62-2,2.79-3.78,2.79-2.18,0-3.95-1.77-3.95-3.95s1.77-3.95,3.95-3.95c1.7,0,3.14,1.07,3.7,2.58Z" style="fill: url(#linear-gradient-2);"/>
    </g>
  </g>
</svg>