<?xml version="1.0" encoding="UTF-8"?>
<svg id="Layer_2" data-name="Layer 2" xmlns="http://www.w3.org/2000/svg" xmlns:xlink="http://www.w3.org/1999/xlink" viewBox="0 0 85.22 85.22">
  <defs>
    <linearGradient id="linear-gradient" x1="42.61" y1="96.51" x2="42.61" y2="-37.46" gradientUnits="userSpaceOnUse">
      <stop offset="0" stop-color="#2377ed"/>
      <stop offset="1" stop-color="#08d442"/>
    </linearGradient>
    <linearGradient id="linear-gradient-2" x1="42.61" y1="83.13" x2="42.61" y2="-17.59" gradientUnits="userSpaceOnUse">
      <stop offset="0" stop-color="#fff"/>
      <stop offset="1" stop-color="#fff"/>
    </linearGradient>
  </defs>
  <g id="Layer_1-2" data-name="Layer 1">
    <g>
      <rect width="85.22" height="85.22" rx="12" ry="12" style="fill: url(#linear-gradient);"/>
      <g>
        <path d="M22.54,33.04c1.55,0,2.81,1.26,2.81,2.81s-1.26,2.81-2.81,2.81-2.81-1.26-2.81-2.81,1.26-2.81,2.81-2.81M26.94,11.56c1.55,0,2.81,1.26,2.81,2.81s-1.26,2.81-2.81,2.81-2.81-1.26-2.81-2.81,1.26-2.81,2.81-2.81ZM18.37,21.81c1.55,0,2.81,1.26,2.81,2.81s-1.26,2.81-2.81,2.81-2.81-1.26-2.81-2.81,1.26-2.81,2.81-2.81ZM13.92,48.19c1.55,0,2.81,1.26,2.81,2.81s-1.26,2.81-2.81,2.81-2.81-1.26-2.81-2.81,1.26-2.81,2.81-2.81ZM11.11,35.85c1.55,0,2.81,1.26,2.81,2.81s-1.26,2.81-2.81,2.81-2.81-1.26-2.81-2.81,1.26-2.81,2.81-2.81ZM23.99,57.74c1.55,0,2.81,1.26,2.81,2.81s-1.26,2.81-2.81,2.81-2.81-1.26-2.81-2.81,1.26-2.81,2.81-2.81ZM34.13,53.39c1.55,0,2.81,1.26,2.81,2.81s-1.26,2.81-2.81,2.81-2.81-1.26-2.81-2.81,1.26-2.81,2.81-2.81ZM42.67,12.41c9.42-.1,16.24,1.78,20.48,5.64,3.82,3.48,5.4,8.5,5.07,15.06-.18,3.57-.59,4.14,1.61,5.94,2.5,2.04,6.52,5.37,7,7.45.46,1.99-.99,3.35-4.91,4.47.37.45.64.95.78,1.44.14.5.17,1,.07,1.47-.11.51-.36.96-.77,1.32-.16.14-.35.27-.56.37.29.48.45,1.03.44,1.59-.01.66-.25,1.33-.76,1.95l-.05.05c-.39.46-.92.89-1.62,1.27,1.82,6.31.25,8.79-2.86,9.77-1.81.57-4.1.53-6.53.5-2.61-.04-5.39-.08-7.64.67.03.15.04.31.04.47,0,1.55-1.26,2.81-2.81,2.81s-2.81-1.26-2.81-2.81c0-1.42,1.06-2.6,2.44-2.78.26-2.16.13-4.33-.37-6.41l-.03-.13c-2.52,1.28-5.21,2.26-8.03,2.92-.19,1.37-1.36,2.43-2.78,2.43-1.55,0-2.81-1.26-2.81-2.81s1.26-2.81,2.81-2.81c1.05,0,1.96.57,2.44,1.42,2.76-.65,5.39-1.63,7.84-2.9-.79-2.2-2.01-4.26-3.64-6.05-2.07-2.28-4.66-3.95-7.49-4.93-2.03-.7-4.18-1.03-6.35-.98-.29,1.25-1.4,2.18-2.74,2.18-1.55,0-2.81-1.26-2.81-2.81s1.26-2.81,2.81-2.81c1.14,0,2.11.67,2.56,1.64,2.44-.08,4.85.29,7.11,1.07,3.11,1.07,5.95,2.91,8.23,5.42,1.72,1.89,3.03,4.06,3.9,6.38.94-.56,1.86-1.16,2.74-1.8h0c3.16-2.4,5.65-5.48,7.33-8.96-1.49-1.5-3.1-2.91-4.83-4.18-4.77-3.53-10.35-6.1-16.12-7.21-.47.9-1.41,1.51-2.49,1.51-1.55,0-2.81-1.26-2.81-2.81s1.26-2.81,2.81-2.81c1.39,0,2.54,1,2.77,2.32,6.07,1.16,11.92,3.85,16.92,7.55,1.61,1.19,3.12,2.48,4.53,3.86,1.45-3.72,2-7.81,1.5-11.93-3.41-2.56-6.49-4.62-9.81-6.26-4.28-2.11-8.99-3.53-15.38-4.43-.45.94-1.41,1.58-2.53,1.58-1.55,0-2.81-1.26-2.81-2.81s1.26-2.81,2.81-2.81c1.36,0,2.49.97,2.75,2.25,6.6.93,11.49,2.4,15.95,4.6,2.93,1.45,5.66,3.2,8.56,5.31-1.78-7.76-10.89-16.99-19.11-18.67-.35,1.15-1.42,1.99-2.69,1.99-1.55,0-2.81-1.26-2.81-2.81s1.26-2.81,2.81-2.81c1.21,0,2.24.76,2.63,1.83Z" style="fill: #231f20;"/>
        <path d="M22.54,33.04c1.55,0,2.81,1.26,2.81,2.81s-1.26,2.81-2.81,2.81-2.81-1.26-2.81-2.81,1.26-2.81,2.81-2.81M26.94,11.56c1.55,0,2.81,1.26,2.81,2.81s-1.26,2.81-2.81,2.81-2.81-1.26-2.81-2.81,1.26-2.81,2.81-2.81ZM18.37,21.81c1.55,0,2.81,1.26,2.81,2.81s-1.26,2.81-2.81,2.81-2.81-1.26-2.81-2.81,1.26-2.81,2.81-2.81ZM13.92,48.19c1.55,0,2.81,1.26,2.81,2.81s-1.26,2.81-2.81,2.81-2.81-1.26-2.81-2.81,1.26-2.81,2.81-2.81ZM11.11,35.85c1.55,0,2.81,1.26,2.81,2.81s-1.26,2.81-2.81,2.81-2.81-1.26-2.81-2.81,1.26-2.81,2.81-2.81ZM23.99,57.74c1.55,0,2.81,1.26,2.81,2.81s-1.26,2.81-2.81,2.81-2.81-1.26-2.81-2.81,1.26-2.81,2.81-2.81ZM34.13,53.39c1.55,0,2.81,1.26,2.81,2.81s-1.26,2.81-2.81,2.81-2.81-1.26-2.81-2.81,1.26-2.81,2.81-2.81ZM42.67,12.41c9.42-.1,16.24,1.78,20.48,5.64,3.82,3.48,5.4,8.5,5.07,15.06-.18,3.57-.59,4.14,1.61,5.94,2.5,2.04,6.52,5.37,7,7.45.46,1.99-.99,3.35-4.91,4.47.37.45.64.95.78,1.44.14.5.17,1,.07,1.47-.11.51-.36.96-.77,1.32-.16.14-.35.27-.56.37.29.48.45,1.03.44,1.59-.01.66-.25,1.33-.76,1.95l-.05.05c-.39.46-.92.89-1.62,1.27,1.82,6.31.25,8.79-2.86,9.77-1.81.57-4.1.53-6.53.5-2.61-.04-5.39-.08-7.64.67.03.15.04.31.04.47,0,1.55-1.26,2.81-2.81,2.81s-2.81-1.26-2.81-2.81c0-1.42,1.06-2.6,2.44-2.78.26-2.16.13-4.33-.37-6.41l-.03-.13c-2.52,1.28-5.21,2.26-8.03,2.92-.19,1.37-1.36,2.43-2.78,2.43-1.55,0-2.81-1.26-2.81-2.81s1.26-2.81,2.81-2.81c1.05,0,1.96.57,2.44,1.42,2.76-.65,5.39-1.63,7.84-2.9-.79-2.2-2.01-4.26-3.64-6.05-2.07-2.28-4.66-3.95-7.49-4.93-2.03-.7-4.18-1.03-6.35-.98-.29,1.25-1.4,2.18-2.74,2.18-1.55,0-2.81-1.26-2.81-2.81s1.26-2.81,2.81-2.81c1.14,0,2.11.67,2.56,1.64,2.44-.08,4.85.29,7.11,1.07,3.11,1.07,5.95,2.91,8.23,5.42,1.72,1.89,3.03,4.06,3.9,6.38.94-.56,1.86-1.16,2.74-1.8h0c3.16-2.4,5.65-5.48,7.33-8.96-1.49-1.5-3.1-2.91-4.83-4.18-4.77-3.53-10.35-6.1-16.12-7.21-.47.9-1.41,1.51-2.49,1.51-1.55,0-2.81-1.26-2.81-2.81s1.26-2.81,2.81-2.81c1.39,0,2.54,1,2.77,2.32,6.07,1.16,11.92,3.85,16.92,7.55,1.61,1.19,3.12,2.48,4.53,3.86,1.45-3.72,2-7.81,1.5-11.93-3.41-2.56-6.49-4.62-9.81-6.26-4.28-2.11-8.99-3.53-15.38-4.43-.45.94-1.41,1.58-2.53,1.58-1.55,0-2.81-1.26-2.81-2.81s1.26-2.81,2.81-2.81c1.36,0,2.49.97,2.75,2.25,6.6.93,11.49,2.4,15.95,4.6,2.93,1.45,5.66,3.2,8.56,5.31-1.78-7.76-10.89-16.99-19.11-18.67-.35,1.15-1.42,1.99-2.69,1.99-1.55,0-2.81-1.26-2.81-2.81s1.26-2.81,2.81-2.81c1.21,0,2.24.76,2.63,1.83Z" style="fill: url(#linear-gradient-2);"/>
      </g>
    </g>
  </g>
</svg>