<svg xmlns="http://www.w3.org/2000/svg" viewBox="0 0 1600 900" role="img" aria-labelledby="title desc">
  <title id="title">Legal policy hero background</title>
  <desc id="desc">Abstract blue legal themed background with document shapes and shield motif.</desc>
  <defs>
    <linearGradient id="bgGrad" x1="0%" y1="0%" x2="100%" y2="100%">
      <stop offset="0%" stop-color="#0f2d5f"/>
      <stop offset="55%" stop-color="#1d4e9d"/>
      <stop offset="100%" stop-color="#1b6bd9"/>
    </linearGradient>
    <linearGradient id="cardGrad" x1="0%" y1="0%" x2="0%" y2="100%">
      <stop offset="0%" stop-color="#f5fbff" stop-opacity="0.95"/>
      <stop offset="100%" stop-color="#d6ebff" stop-opacity="0.88"/>
    </linearGradient>
    <radialGradient id="glowA" cx="50%" cy="50%" r="60%">
      <stop offset="0%" stop-color="#84d2ff" stop-opacity="0.45"/>
      <stop offset="100%" stop-color="#84d2ff" stop-opacity="0"/>
    </radialGradient>
    <radialGradient id="glowB" cx="50%" cy="50%" r="60%">
      <stop offset="0%" stop-color="#b2e5ff" stop-opacity="0.35"/>
      <stop offset="100%" stop-color="#b2e5ff" stop-opacity="0"/>
    </radialGradient>
    <filter id="softShadow" x="-20%" y="-20%" width="140%" height="140%">
      <feDropShadow dx="0" dy="8" stdDeviation="16" flood-color="#0d2e63" flood-opacity="0.35"/>
    </filter>
  </defs>

  <rect width="1600" height="900" fill="url(#bgGrad)"/>
  <circle cx="1320" cy="120" r="280" fill="url(#glowA)"/>
  <circle cx="260" cy="760" r="320" fill="url(#glowB)"/>

  <g opacity="0.22" stroke="#cde8ff" stroke-width="1">
    <path d="M0 120H1600M0 220H1600M0 320H1600M0 420H1600M0 520H1600M0 620H1600M0 720H1600M0 820H1600"/>
    <path d="M120 0V900M260 0V900M400 0V900M540 0V900M680 0V900M820 0V900M960 0V900M1100 0V900M1240 0V900M1380 0V900M1520 0V900"/>
  </g>

  <g transform="translate(250 160)" filter="url(#softShadow)">
    <rect x="0" y="0" width="540" height="620" rx="26" fill="url(#cardGrad)"/>
    <rect x="50" y="70" width="260" height="26" rx="13" fill="#89bfff"/>
    <rect x="50" y="124" width="430" height="16" rx="8" fill="#9dcbff"/>
    <rect x="50" y="158" width="430" height="16" rx="8" fill="#9dcbff"/>
    <rect x="50" y="192" width="320" height="16" rx="8" fill="#9dcbff"/>
    <rect x="50" y="262" width="430" height="16" rx="8" fill="#9dcbff"/>
    <rect x="50" y="296" width="430" height="16" rx="8" fill="#9dcbff"/>
    <rect x="50" y="330" width="380" height="16" rx="8" fill="#9dcbff"/>
    <rect x="50" y="400" width="430" height="16" rx="8" fill="#9dcbff"/>
    <rect x="50" y="434" width="300" height="16" rx="8" fill="#9dcbff"/>
    <rect x="50" y="514" width="190" height="42" rx="21" fill="#2b6cf4"/>
  </g>

  <g transform="translate(980 210)" filter="url(#softShadow)" opacity="0.68">
    <path d="M180 0 330 58v170c0 135-100 236-150 272C130 464 30 363 30 228V58L180 0Z" fill="#dbeeff" opacity="0.64"/>
    <path d="M180 48 285 88v134c0 95-66 170-105 202-39-32-105-107-105-202V88l105-40Z" fill="#4f83d2" opacity="0.5"/>
    <path d="M127 223l37 38 72-85" fill="none" stroke="#f2f8ff" stroke-opacity="0.62" stroke-width="14" stroke-linecap="round" stroke-linejoin="round"/>
  </g>
</svg>
